<?xml version="1.0" standalone="no"?>
<!DOCTYPE svg PUBLIC "-//W3C//DTD SVG 20010904//EN"
 "http://www.w3.org/TR/2001/REC-SVG-20010904/DTD/svg10.dtd">
<svg version="1.0" xmlns="http://www.w3.org/2000/svg"
 width="32.000000pt" height="30.000000pt" viewBox="0 0 32.000000 30.000000"
 preserveAspectRatio="xMidYMid meet">

<g transform="translate(0.000000,30.000000) scale(0.100000,-0.100000)"
fill="#000000" stroke="none">
<path d="M7 293 c-11 -10 -8 -25 3 -18 6 4 10 -32 10 -99 0 -64 -4 -106 -10
-106 -19 0 -10 -39 10 -45 11 -3 20 -10 20 -14 0 -3 9 -7 20 -7 11 0 20 4 20
8 0 3 15 9 33 11 l32 4 -32 1 c-18 1 -33 7 -33 12 0 14 -37 13 -42 -2 -2 -6
-10 -8 -16 -4 -28 17 -8 26 61 28 l72 2 -62 3 -63 4 0 110 0 110 95 -3 c52 -2
95 0 95 5 0 9 -204 10 -213 0z m63 -263 c0 -5 -4 -10 -10 -10 -5 0 -10 5 -10
10 0 6 5 10 10 10 6 0 10 -4 10 -10z"/>
<path d="M210 245 c0 -14 4 -25 9 -25 4 0 6 11 3 25 -2 14 -6 25 -8 25 -2 0
-4 -11 -4 -25z"/>
<path d="M4 170 c0 -52 1 -74 3 -47 2 26 2 68 0 95 -2 26 -3 4 -3 -48z"/>
<path d="M198 160 c-9 -17 -13 -30 -8 -30 5 0 12 9 15 20 3 11 10 20 15 20 5
0 12 -9 15 -20 3 -11 10 -20 15 -20 5 0 1 13 -8 30 -9 16 -19 30 -22 30 -3 0
-13 -14 -22 -30z"/>
<path d="M143 102 c22 -23 26 -34 21 -60 -7 -36 -3 -38 31 -16 23 15 27 15 50
0 34 -22 38 -20 31 16 -5 26 -1 37 21 60 l27 28 -30 -1 c-22 0 -25 -2 -11 -8
17 -6 17 -8 -3 -26 -16 -14 -19 -26 -14 -48 l6 -29 -26 17 c-24 16 -28 16 -52
0 l-26 -17 6 29 c5 22 2 34 -14 48 -20 18 -20 20 -3 26 14 6 11 8 -11 8 l-30
1 27 -28z"/>
</g>
</svg>
