<?xml version="1.0" standalone="no"?>
<!DOCTYPE svg PUBLIC "-//W3C//DTD SVG 20010904//EN"
 "http://www.w3.org/TR/2001/REC-SVG-20010904/DTD/svg10.dtd">
<svg version="1.0" xmlns="http://www.w3.org/2000/svg"
 width="26.000000pt" height="22.000000pt" viewBox="0 0 26.000000 22.000000"
 preserveAspectRatio="xMidYMid meet">

<g transform="translate(0.000000,22.000000) scale(0.100000,-0.100000)"
fill="#000000" stroke="none">
<path d="M0 122 c0 -63 4 -102 12 -110 16 -16 220 -16 236 0 8 8 12 47 12 110
l0 98 -130 0 -130 0 0 -98z m238 -9 l-3 -88 -105 0 -105 0 -3 88 -3 87 111 0
111 0 -3 -87z"/>
<path d="M43 153 c0 -16 2 -22 4 -15 4 10 8 10 18 2 11 -9 14 -7 12 9 -1 11
-3 18 -6 16 -2 -3 -10 0 -16 5 -9 8 -12 3 -12 -17z"/>
<path d="M93 165 c-3 -9 -3 -18 -1 -21 3 -3 8 4 11 16 6 23 -1 27 -10 5z"/>
<path d="M150 170 c0 -8 5 -22 10 -30 9 -13 10 -13 10 0 0 8 -5 22 -10 30 -9
13 -10 13 -10 0z"/>
<path d="M196 171 c-3 -5 2 -15 12 -22 15 -12 16 -12 5 2 -7 9 -10 19 -6 22 3
4 4 7 0 7 -3 0 -8 -4 -11 -9z"/>
<path d="M130 155 c0 -8 4 -15 10 -15 5 0 7 7 4 15 -4 8 -8 15 -10 15 -2 0 -4
-7 -4 -15z"/>
<path d="M63 113 c15 -2 39 -2 55 0 15 2 2 4 -28 4 -30 0 -43 -2 -27 -4z"/>
<path d="M160 80 c0 -38 2 -40 30 -40 28 0 30 2 30 38 0 34 -2 37 -30 39 -29
2 -30 0 -30 -37z"/>
<path d="M63 63 c15 -2 39 -2 55 0 15 2 2 4 -28 4 -30 0 -43 -2 -27 -4z"/>
<path d="M63 43 c15 -2 39 -2 55 0 15 2 2 4 -28 4 -30 0 -43 -2 -27 -4z"/>
</g>
</svg>
